<svg width="17" height="17" viewBox="0 0 17 17" fill="none" xmlns="http://www.w3.org/2000/svg">
<path d="M14.2604 14.5209C14.3258 14.4587 14.3777 14.3849 14.4132 14.3037C14.4486 14.2225 14.4668 14.1354 14.4668 14.0475C14.4668 13.87 14.3926 13.6997 14.2604 13.5742C14.1283 13.4487 13.949 13.3781 13.7622 13.3781C13.5753 13.3781 13.3961 13.4487 13.2639 13.5742L12.3587 14.4409L12.3587 4.04753C12.3587 3.87072 12.2847 3.70115 12.1531 3.57612C12.0215 3.4511 11.843 3.38086 11.6569 3.38086C11.4708 3.38086 11.2923 3.4511 11.1607 3.57612C11.0291 3.70115 10.9552 3.87071 10.9552 4.04753L10.9552 14.4409L10.0499 13.5742C9.98465 13.5117 9.90704 13.4621 9.82152 13.4283C9.73601 13.3944 9.64428 13.377 9.55164 13.377C9.459 13.377 9.36728 13.3944 9.28177 13.4283C9.19625 13.4621 9.11864 13.5117 9.0534 13.5742C8.98762 13.6362 8.93542 13.7099 8.89979 13.7911C8.86416 13.8724 8.84582 13.9595 8.84582 14.0475C8.84582 14.1355 8.86416 14.2227 8.89979 14.3039C8.93542 14.3852 8.98762 14.4589 9.0534 14.5209L11.1587 16.5209C11.2239 16.5833 11.3015 16.6329 11.387 16.6668C11.4725 16.7006 11.5643 16.7181 11.6569 16.7181C11.7495 16.7181 11.8413 16.7006 11.9268 16.6668C12.0123 16.6329 12.0899 16.5833 12.1552 16.5209L14.2604 14.5209Z" fill="black"/>
<path d="M6.0403 15.6959L6.0403 5.30259L6.94557 6.16926C7.07771 6.29479 7.25693 6.36532 7.44381 6.36532C7.63069 6.36532 7.80991 6.29479 7.94206 6.16926C8.0742 6.04372 8.14844 5.87346 8.14844 5.69592C8.14844 5.51839 8.0742 5.34812 7.94206 5.22259L5.83679 3.22259C5.77156 3.1601 5.69394 3.11051 5.60843 3.07666C5.52291 3.04282 5.43119 3.02539 5.33855 3.02539C5.24591 3.02539 5.15419 3.04282 5.06867 3.07666C4.98315 3.11051 4.90554 3.1601 4.8403 3.22259L2.73504 5.22259C2.66927 5.28456 2.61706 5.3583 2.58143 5.43954C2.5458 5.52078 2.52746 5.60791 2.52746 5.69592C2.52746 5.78393 2.5458 5.87107 2.58143 5.95231C2.61706 6.03355 2.66927 6.10728 2.73504 6.16926C2.80028 6.23174 2.87789 6.28134 2.96341 6.31518C3.04892 6.34903 3.14064 6.36645 3.23328 6.36645C3.32592 6.36645 3.41765 6.34903 3.50316 6.31518C3.58868 6.28134 3.66629 6.23174 3.73153 6.16926L4.63679 5.30259L4.63679 15.6959C4.63679 15.8727 4.71073 16.0423 4.84233 16.1673C4.97394 16.2923 5.15243 16.3626 5.33855 16.3626C5.52466 16.3626 5.70316 16.2923 5.83476 16.1673C5.96637 16.0423 6.0403 15.8727 6.0403 15.6959Z" fill="black"/>
</svg>
