<svg width="20" height="20" viewBox="0 0 20 20" fill="none" xmlns="http://www.w3.org/2000/svg">
<path d="M17 0.236328H3C2.20435 0.236328 1.44129 0.547462 0.87868 1.10128C0.316071 1.65511 0 2.40625 0 3.18947V16.9708C0 17.754 0.316071 18.5052 0.87868 19.059C1.44129 19.6128 2.20435 19.924 3 19.924H17C17.7956 19.924 18.5587 19.6128 19.1213 19.059C19.6839 18.5052 20 17.754 20 16.9708V3.18947C20 2.40625 19.6839 1.65511 19.1213 1.10128C18.5587 0.547462 17.7956 0.236328 17 0.236328ZM18 16.9708C18 17.2319 17.8946 17.4823 17.7071 17.6669C17.5196 17.8515 17.2652 17.9552 17 17.9552H3C2.73478 17.9552 2.48043 17.8515 2.29289 17.6669C2.10536 17.4823 2 17.2319 2 16.9708V3.18947C2 2.9284 2.10536 2.67802 2.29289 2.49341C2.48043 2.3088 2.73478 2.20509 3 2.20509H17C17.2652 2.20509 17.5196 2.3088 17.7071 2.49341C17.8946 2.67802 18 2.9284 18 3.18947V16.9708Z" fill="#E1E1E1"/>
</svg>
