<svg width="20" height="21" viewBox="0 0 20 21" fill="none" xmlns="http://www.w3.org/2000/svg">
<path d="M17 0.453125H3C2.20435 0.453125 1.44129 0.764259 0.87868 1.31808C0.316071 1.8719 0 2.62305 0 3.40627V17.1876C0 17.9708 0.316071 18.722 0.87868 19.2758C1.44129 19.8296 2.20435 20.1408 3 20.1408H17C17.7956 20.1408 18.5587 19.8296 19.1213 19.2758C19.6839 18.722 20 17.9708 20 17.1876V3.40627C20 2.62305 19.6839 1.8719 19.1213 1.31808C18.5587 0.764259 17.7956 0.453125 17 0.453125ZM18 17.1876C18 17.4487 17.8946 17.6991 17.7071 17.8837C17.5196 18.0683 17.2652 18.172 17 18.172H3C2.73478 18.172 2.48043 18.0683 2.29289 17.8837C2.10536 17.6991 2 17.4487 2 17.1876V3.40627C2 3.1452 2.10536 2.89481 2.29289 2.71021C2.48043 2.5256 2.73478 2.42189 3 2.42189H17C17.2652 2.42189 17.5196 2.5256 17.7071 2.71021C17.8946 2.89481 18 3.1452 18 3.40627V17.1876Z" fill="#E1E1E1"/>
</svg>
