<svg width="20" height="21" viewBox="0 0 20 21" fill="none" xmlns="http://www.w3.org/2000/svg">
<path d="M17 0.642578H3C2.20435 0.642578 1.44129 0.953712 0.87868 1.50753C0.316071 2.06136 0 2.8125 0 3.59572V17.3771C0 18.1603 0.316071 18.9114 0.87868 19.4653C1.44129 20.0191 2.20435 20.3302 3 20.3302H17C17.7956 20.3302 18.5587 20.0191 19.1213 19.4653C19.6839 18.9114 20 18.1603 20 17.3771V3.59572C20 2.8125 19.6839 2.06136 19.1213 1.50753C18.5587 0.953712 17.7956 0.642578 17 0.642578ZM18 17.3771C18 17.6381 17.8946 17.8885 17.7071 18.0731C17.5196 18.2577 17.2652 18.3614 17 18.3614H3C2.73478 18.3614 2.48043 18.2577 2.29289 18.0731C2.10536 17.8885 2 17.6381 2 17.3771V3.59572C2 3.33465 2.10536 3.08427 2.29289 2.89966C2.48043 2.71505 2.73478 2.61134 3 2.61134H17C17.2652 2.61134 17.5196 2.71505 17.7071 2.89966C17.8946 3.08427 18 3.33465 18 3.59572V17.3771Z" fill="#E1E1E1"/>
</svg>
