<svg width="20" height="21" viewBox="0 0 20 21" fill="none" xmlns="http://www.w3.org/2000/svg">
<path d="M17 0.533203H3C2.20435 0.533203 1.44129 0.844337 0.87868 1.39816C0.316071 1.95198 0 2.70313 0 3.48635V17.2677C0 18.0509 0.316071 18.8021 0.87868 19.3559C1.44129 19.9097 2.20435 20.2208 3 20.2208H17C17.7956 20.2208 18.5587 19.9097 19.1213 19.3559C19.6839 18.8021 20 18.0509 20 17.2677V3.48635C20 2.70313 19.6839 1.95198 19.1213 1.39816C18.5587 0.844337 17.7956 0.533203 17 0.533203ZM18 17.2677C18 17.5288 17.8946 17.7791 17.7071 17.9638C17.5196 18.1484 17.2652 18.2521 17 18.2521H3C2.73478 18.2521 2.48043 18.1484 2.29289 17.9638C2.10536 17.7791 2 17.5288 2 17.2677V3.48635C2 3.22527 2.10536 2.97489 2.29289 2.79029C2.48043 2.60568 2.73478 2.50197 3 2.50197H17C17.2652 2.50197 17.5196 2.60568 17.7071 2.79029C17.8946 2.97489 18 3.22527 18 3.48635V17.2677Z" fill="#E1E1E1"/>
</svg>
