<svg width="20" height="20" viewBox="0 0 20 20" fill="none" xmlns="http://www.w3.org/2000/svg">
<path d="M17 0.046875H3C2.20435 0.046875 1.44129 0.358009 0.87868 0.911831C0.316071 1.46565 0 2.2168 0 3.00002V16.7814C0 17.5646 0.316071 18.3157 0.87868 18.8696C1.44129 19.4234 2.20435 19.7345 3 19.7345H17C17.7956 19.7345 18.5587 19.4234 19.1213 18.8696C19.6839 18.3157 20 17.5646 20 16.7814V3.00002C20 2.2168 19.6839 1.46565 19.1213 0.911831C18.5587 0.358009 17.7956 0.046875 17 0.046875ZM18 16.7814C18 17.0424 17.8946 17.2928 17.7071 17.4774C17.5196 17.662 17.2652 17.7657 17 17.7657H3C2.73478 17.7657 2.48043 17.662 2.29289 17.4774C2.10536 17.2928 2 17.0424 2 16.7814V3.00002C2 2.73895 2.10536 2.48856 2.29289 2.30396C2.48043 2.11935 2.73478 2.01564 3 2.01564H17C17.2652 2.01564 17.5196 2.11935 17.7071 2.30396C17.8946 2.48856 18 2.73895 18 3.00002V16.7814Z" fill="#E1E1E1"/>
</svg>
